<?xml version="1.0" standalone="no"?>
<!DOCTYPE svg PUBLIC "-//W3C//DTD SVG 20010904//EN"
 "http://www.w3.org/TR/2001/REC-SVG-20010904/DTD/svg10.dtd">
<svg version="1.0" xmlns="http://www.w3.org/2000/svg"
 width="500.000000pt" height="500.000000pt" viewBox="0 0 500.000000 500.000000"
 preserveAspectRatio="xMidYMid meet">

<g transform="translate(0.000000,500.000000) scale(0.100000,-0.100000)"
fill="#000000" stroke="none">
<path d="M723 3085 c-56 -15 -140 -55 -187 -88 l-29 -20 7 37 c5 24 3 43 -5
52 -15 18 -63 18 -78 0 -24 -29 -371 -1276 -371 -1332 0 -51 79 -56 98 -7 20
51 79 263 187 668 l106 400 47 49 c88 91 219 156 314 156 63 -1 121 -30 141
-73 55 -115 -25 -340 -178 -505 l-52 -56 -46 41 c-102 89 -213 79 -259 -24
-59 -133 63 -241 212 -188 24 8 46 13 48 10 3 -3 5 -91 3 -195 -3 -293 27
-484 97 -614 41 -76 120 -150 187 -175 70 -26 90 -26 116 0 26 26 21 60 -11
75 -122 55 -147 72 -181 118 -77 103 -101 231 -101 535 1 124 -3 246 -8 273
l-9 47 56 53 c31 29 78 82 105 118 170 224 197 475 64 598 -67 62 -159 77
-273 47z m-132 -742 c49 -29 33 -53 -36 -53 -46 0 -65 32 -33 54 28 20 33 20
69 -1z"/>
<path d="M1991 3033 c-5 -10 -21 -63 -36 -118 -61 -225 -156 -520 -167 -524
-7 -2 -38 -31 -68 -65 -150 -167 -238 -230 -321 -230 -77 0 -139 60 -139 134
0 35 0 35 60 47 184 35 304 153 285 279 -15 102 -102 133 -215 77 -135 -67
-230 -234 -230 -403 1 -108 45 -177 144 -220 120 -54 241 -12 388 131 44 43
59 53 54 37 -21 -79 -38 -219 -33 -279 12 -143 86 -215 182 -175 92 39 200
171 266 327 17 40 32 75 34 77 1 1 1 -58 1 -130 -1 -151 11 -207 54 -250 50
-50 149 -32 234 42 87 76 206 293 281 510 73 211 170 674 149 708 -17 27 -62
39 -78 21 -8 -7 -26 -81 -41 -164 -64 -368 -135 -601 -240 -784 -98 -173 -202
-267 -243 -218 -46 55 -2 357 123 856 30 121 55 229 55 240 0 24 -32 44 -63
39 -29 -4 -35 -19 -118 -278 -78 -245 -124 -368 -199 -527 -92 -195 -207 -363
-250 -363 -9 0 -24 8 -33 18 -40 44 -15 169 133 683 62 215 120 438 120 464 0
48 -68 76 -89 38z m-497 -479 c23 -22 20 -37 -17 -86 -36 -47 -130 -102 -167
-96 -21 3 -19 7 31 78 48 65 106 120 130 120 4 0 15 -7 23 -16z"/>
<path d="M4546 2658 c-8 -13 -36 -93 -61 -178 -53 -174 -76 -224 -134 -298
-70 -89 -147 -109 -195 -51 -48 56 -32 174 46 357 43 100 47 124 27 148 -21
26 -57 17 -81 -21 -18 -28 -27 -34 -43 -28 -11 4 -60 7 -110 7 -79 0 -97 -3
-150 -29 -62 -30 -151 -114 -319 -300 -89 -97 -159 -148 -227 -165 -41 -10
-53 -9 -91 8 -35 15 -50 30 -67 64 -24 50 -27 87 -8 92 6 2 37 9 67 16 164 37
270 133 270 244 0 130 -85 172 -217 106 -77 -39 -135 -102 -180 -195 -89 -189
-58 -352 81 -420 116 -57 237 -25 370 96 37 34 68 60 69 58 1 -2 13 -26 27
-53 31 -59 92 -106 148 -113 58 -8 137 32 201 102 27 30 52 55 54 55 2 0 7
-18 11 -40 4 -26 19 -54 44 -82 62 -69 133 -86 207 -48 47 24 45 24 45 6 0
-26 69 -37 88 -13 5 6 31 64 57 127 75 187 163 316 249 370 46 28 117 41 170
31 57 -10 86 6 86 50 0 25 -6 33 -35 45 -40 16 -134 18 -187 4 -20 -6 -60 -26
-89 -46 -28 -19 -53 -33 -55 -31 -2 2 3 26 11 53 13 43 13 51 -1 71 -19 30
-59 30 -78 1z m-1188 -100 c26 -26 13 -61 -41 -113 -37 -36 -67 -55 -100 -64
-26 -8 -50 -11 -53 -8 -10 9 64 112 111 156 47 43 63 49 83 29z m685 -59 c20
-5 37 -14 37 -20 0 -14 -57 -125 -97 -189 -75 -119 -176 -195 -228 -172 -46
21 -57 130 -19 206 37 73 142 158 219 177 43 10 46 10 88 -2z"/>
</g>
</svg>
