<?xml version="1.0" standalone="no"?>
<!DOCTYPE svg PUBLIC "-//W3C//DTD SVG 20010904//EN"
 "http://www.w3.org/TR/2001/REC-SVG-20010904/DTD/svg10.dtd">
<svg version="1.0" xmlns="http://www.w3.org/2000/svg"
 width="500.000000pt" height="500.000000pt" viewBox="0 0 500.000000 500.000000"
 preserveAspectRatio="xMidYMid meet">

<g transform="translate(0.000000,500.000000) scale(0.100000,-0.100000)"
fill="#000000" stroke="none">
<path d="M0 2500 l0 -2500 2500 0 2500 0 0 2500 0 2500 -2500 0 -2500 0 0
-2500z m947 575 c87 -44 132 -129 133 -256 0 -159 -75 -312 -233 -476 -55 -57
-77 -85 -71 -95 5 -7 12 -146 15 -308 5 -231 10 -308 23 -355 40 -143 103
-228 192 -260 92 -32 108 -49 84 -93 -23 -40 -68 -41 -146 -2 -138 68 -224
226 -254 470 -5 46 -10 180 -10 297 0 117 -1 213 -2 213 -2 0 -21 -7 -43 -15
-61 -22 -126 -19 -166 8 -89 59 -89 185 0 244 60 41 147 22 220 -46 l34 -32
29 28 c119 113 218 315 218 442 0 107 -53 156 -166 156 -63 -1 -82 -6 -150
-40 -54 -26 -99 -58 -140 -99 -69 -69 -49 -11 -194 -561 -88 -332 -159 -576
-172 -592 -13 -16 -60 -17 -76 -1 -7 7 -12 23 -12 36 0 48 334 1263 361 1313
17 33 47 42 76 24 21 -14 24 -22 20 -51 -7 -41 -3 -42 46 -8 122 82 286 107
384 59z m1117 -38 c10 -8 18 -24 18 -38 0 -32 -37 -173 -142 -549 -121 -429
-130 -466 -130 -525 0 -55 20 -95 49 -95 35 0 104 92 191 251 102 187 191 411
280 705 29 93 58 179 66 192 16 24 62 30 82 10 19 -19 15 -46 -47 -296 -119
-474 -162 -775 -119 -829 44 -55 171 73 272 274 83 167 145 377 201 682 20
107 40 200 46 208 17 19 53 16 74 -7 22 -25 18 -64 -31 -309 -44 -218 -90
-378 -149 -524 -126 -308 -261 -467 -397 -469 -51 -1 -86 24 -111 80 -19 41
-22 65 -22 182 l0 136 -50 -101 c-80 -161 -158 -252 -248 -290 -54 -22 -82
-19 -122 16 -65 57 -81 179 -46 356 l17 91 -75 -69 c-130 -120 -243 -158 -355
-120 -52 18 -115 77 -138 129 -54 122 11 349 130 453 83 73 202 101 255 59 54
-43 60 -149 12 -223 -44 -66 -201 -147 -285 -147 -28 0 -30 -2 -30 -37 0 -77
60 -133 142 -133 84 1 163 56 299 210 39 44 77 80 85 80 8 0 14 2 14 4 0 3 32
109 70 238 39 128 80 269 91 313 11 44 25 86 31 93 14 16 49 15 72 -1z m2560
-376 c17 -18 17 -23 2 -72 -8 -30 -14 -54 -13 -56 1 -1 25 13 52 31 68 45 106
56 189 56 86 0 120 -15 124 -54 6 -51 -19 -65 -103 -59 -66 5 -80 3 -129 -21
-100 -49 -179 -159 -272 -381 -26 -60 -51 -116 -56 -122 -15 -19 -75 -16 -86
4 -9 15 -12 15 -51 0 -59 -24 -107 -21 -157 8 -44 26 -86 84 -98 137 -6 26 -6
26 -62 -32 -62 -66 -123 -100 -174 -100 -72 0 -155 62 -187 139 l-14 34 -57
-55 c-133 -130 -258 -165 -377 -106 -82 41 -124 103 -132 199 -7 72 10 144 55
237 42 87 98 146 173 185 57 29 133 36 170 17 47 -26 65 -138 33 -206 -35 -74
-147 -145 -264 -167 -33 -6 -62 -18 -65 -25 -11 -28 15 -90 50 -121 30 -26 44
-31 86 -31 95 0 174 59 364 274 39 43 85 93 103 110 107 99 234 140 342 112
30 -8 56 -11 58 -6 2 5 13 21 24 35 26 33 66 31 86 -5 13 -23 11 -32 -26 -115
-87 -192 -104 -333 -48 -382 60 -52 135 -17 213 99 40 60 58 104 102 248 30
96 61 183 69 193 20 23 55 22 76 -2z"/>
<path d="M533 2350 c-26 -11 -31 -45 -7 -54 24 -9 67 -7 84 4 13 9 11 14 -13
35 -31 27 -32 28 -64 15z"/>
<path d="M1403 2522 c-38 -37 -103 -128 -103 -144 0 -20 87 11 136 48 46 35
80 100 63 120 -20 25 -57 16 -96 -24z"/>
<path d="M3254 2507 c-27 -30 -59 -72 -72 -95 -21 -39 -22 -42 -5 -42 60 0
175 88 189 145 8 32 -2 45 -36 45 -21 0 -40 -13 -76 -53z"/>
<path d="M3903 2481 c-59 -27 -138 -104 -164 -159 -16 -31 -22 -64 -22 -105 0
-53 3 -63 26 -83 22 -19 32 -21 58 -14 74 21 154 112 234 264 28 52 46 98 42
102 -4 5 -36 10 -70 11 -46 3 -73 -1 -104 -16z"/>
</g>
</svg>
